#Comment line ignore any data following # character 
#Hierarchical Translation and Rotation (.htr) file 
[Header]	
#Header keywords are followed by a single value 
FileType HTR		#Single word string
DataType HTRS		#Translation followed by rotation and scale data
FileVersion 1		#integer
NumSegments 84		#integer
NumFrames 2		#integer
DataFrameRate 30		#integer, data frame rate in this file
EulerRotationOrder ZYX
CalibrationUnits mm
RotationUnits Degrees
GlobalAxisofGravity Y
BoneLengthAxis Y
ScaleFactor 1.00
[SegmentNames&Hierarchy]
#CHILD	PARENT
MASTER GLOBAL
root MASTER
chest root
L_mid_tent01 root
R_mid_tent01 root
spine01 root
Bip01_Neck chest
L_humerus chest
R_humerus chest
weapon_bone chest
Bip01_Head Bip01_Neck
eye_left_bone Bip01_Head
eye_right_bone Bip01_Head
L_forearm L_humerus
L_front_hand L_forearm
L_weapon_bone L_forearm
L_front_hand01_01 L_front_hand
L_front_hand02_01 L_front_hand
L_front_hand03_01 L_front_hand
L_front_hand01_02 L_front_hand01_01
L_front_hand02_02 L_front_hand02_01
L_front_hand03_02 L_front_hand03_01
R_forearm R_humerus
R_front_hand R_forearm
R_weapon_bone R_forearm
R_front_hand01_01 R_front_hand
R_front_hand02_01 R_front_hand
R_front_hand03_01 R_front_hand
R_front_hand01_02 R_front_hand01_01
R_front_hand02_02 R_front_hand02_01
R_front_hand03_02 R_front_hand03_01
null_rope01_connect L_mid_tent01
Rope1_Seg01 null_rope01_connect
Rope1_Seg02 Rope1_Seg01
Rope1_Seg03 Rope1_Seg02
Rope1_Seg04 Rope1_Seg03
Rope1_Seg05 Rope1_Seg04
Rope1_Seg06 Rope1_Seg05
Rope1_Seg07 Rope1_Seg06
Rope1_Seg09 Rope1_Seg07
L_mid_hand01 Rope1_Seg09
L_mid_hand02 Rope1_Seg09
L_mid_hand03 Rope1_Seg09
null_rope02_connect R_mid_tent01
Rope2_Seg01 null_rope02_connect
Rope2_Seg02 Rope2_Seg01
Rope2_Seg03 Rope2_Seg02
Rope2_Seg04 Rope2_Seg03
Rope2_Seg05 Rope2_Seg04
Rope2_Seg06 Rope2_Seg05
Rope2_Seg07 Rope2_Seg06
Rope2_Seg09 Rope2_Seg07
R_mid_hand01 Rope2_Seg09
R_mid_hand02 Rope2_Seg09
R_mid_hand03 Rope2_Seg09
spine02 spine01
spine03 spine02
pelvis spine03
null_rope03_connect pelvis
null_rope04_connect pelvis
Rope3_Seg01 null_rope03_connect
Rope3_Seg02 Rope3_Seg01
Rope3_Seg03 Rope3_Seg02
Rope3_Seg04 Rope3_Seg03
Rope3_Seg05 Rope3_Seg04
Rope3_Seg06 Rope3_Seg05
Rope3_Seg07 Rope3_Seg06
Rope3_Seg08 Rope3_Seg07
Rope3_Seg09 Rope3_Seg08
R_rear_hand01 Rope3_Seg09
R_rear_hand02 Rope3_Seg09
R_rear_hand03 Rope3_Seg09
Rope4_Seg01 null_rope04_connect
Rope4_Seg02 Rope4_Seg01
Rope4_Seg03 Rope4_Seg02
Rope4_Seg04 Rope4_Seg03
Rope4_Seg05 Rope4_Seg04
Rope4_Seg06 Rope4_Seg05
Rope4_Seg07 Rope4_Seg06
Rope4_Seg08 Rope4_Seg07
Rope4_Seg09 Rope4_Seg08
L_rear_hand01 Rope4_Seg09
L_rear_hand02 Rope4_Seg09
L_rear_hand03 Rope4_Seg09
[BasePosition]
#SegmentName Tx, Ty, Tz, Rx, Ry, Rz, BoneLength
MASTER 0.000000 0.000000 0.000000 -90.000000 0.000000 0.000000 10.000000 
root 0.000000 0.000000 0.000000 0.000000 0.000000 0.000000 10.000000 
chest 0.000000 0.000000 0.000000 0.000000 0.000000 0.000000 10.000000 
L_mid_tent01 0.000000 0.000000 0.000000 0.000000 0.000000 0.000000 10.000000 
R_mid_tent01 0.000000 0.000000 0.000000 0.000000 0.000000 0.000000 10.000000 
spine01 0.000000 0.000000 0.000000 0.000000 0.000000 0.000000 10.000000 
Bip01_Neck 0.000000 0.000000 0.000000 0.000000 0.000000 0.000000 10.000000 
L_humerus 0.000000 0.000000 0.000000 0.000000 0.000000 0.000000 10.000000 
R_humerus 0.000000 0.000000 0.000000 0.000000 0.000000 0.000000 10.000000 
weapon_bone 0.000000 0.000000 0.000000 0.000000 0.000000 0.000000 10.000000 
Bip01_Head 0.000000 0.000000 0.000000 0.000000 0.000000 0.000000 10.000000 
eye_left_bone 0.000000 0.000000 0.000000 0.000000 0.000000 0.000000 10.000000 
eye_right_bone 0.000000 0.000000 0.000000 0.000000 0.000000 0.000000 10.000000 
L_forearm 0.000000 0.000000 0.000000 0.000000 0.000000 0.000000 10.000000 
L_front_hand 0.000000 0.000000 0.000000 0.000000 0.000000 0.000000 10.000000 
L_weapon_bone 0.000000 0.000000 0.000000 0.000000 0.000000 0.000000 10.000000 
L_front_hand01_01 0.000000 0.000000 0.000000 0.000000 0.000000 0.000000 10.000000 
L_front_hand02_01 0.000000 0.000000 0.000000 0.000000 0.000000 0.000000 10.000000 
L_front_hand03_01 0.000000 0.000000 0.000000 0.000000 0.000000 0.000000 10.000000 
L_front_hand01_02 0.000000 0.000000 0.000000 0.000000 0.000000 0.000000 10.000000 
L_front_hand02_02 0.000000 0.000000 0.000000 0.000000 0.000000 0.000000 10.000000 
L_front_hand03_02 0.000000 0.000000 0.000000 0.000000 0.000000 0.000000 10.000000 
R_forearm 0.000000 0.000000 0.000000 0.000000 0.000000 0.000000 10.000000 
R_front_hand 0.000000 0.000000 0.000000 0.000000 0.000000 0.000000 10.000000 
R_weapon_bone 0.000000 0.000000 0.000000 0.000000 0.000000 0.000000 10.000000 
R_front_hand01_01 0.000000 0.000000 0.000000 0.000000 0.000000 0.000000 10.000000 
R_front_hand02_01 0.000000 0.000000 0.000000 0.000000 0.000000 0.000000 10.000000 
R_front_hand03_01 0.000000 0.000000 0.000000 0.000000 0.000000 0.000000 10.000000 
R_front_hand01_02 0.000000 0.000000 0.000000 0.000000 0.000000 0.000000 10.000000 
R_front_hand02_02 0.000000 0.000000 0.000000 0.000000 0.000000 0.000000 10.000000 
R_front_hand03_02 0.000000 0.000000 0.000000 0.000000 0.000000 0.000000 10.000000 
null_rope01_connect 0.000000 0.000000 0.000000 0.000000 0.000000 0.000000 10.000000 
Rope1_Seg01 0.000000 0.000000 0.000000 0.000000 0.000000 0.000000 10.000000 
Rope1_Seg02 0.000000 0.000000 0.000000 0.000000 0.000000 0.000000 10.000000 
Rope1_Seg03 0.000000 0.000000 0.000000 0.000000 0.000000 0.000000 10.000000 
Rope1_Seg04 0.000000 0.000000 0.000000 0.000000 0.000000 0.000000 10.000000 
Rope1_Seg05 0.000000 0.000000 0.000000 0.000000 0.000000 0.000000 10.000000 
Rope1_Seg06 0.000000 0.000000 0.000000 0.000000 0.000000 0.000000 10.000000 
Rope1_Seg07 0.000000 0.000000 0.000000 0.000000 0.000000 0.000000 10.000000 
Rope1_Seg09 0.000000 0.000000 0.000000 0.000000 0.000000 0.000000 10.000000 
L_mid_hand01 0.000000 0.000000 0.000000 0.000000 0.000000 0.000000 10.000000 
L_mid_hand02 0.000000 0.000000 0.000000 0.000000 0.000000 0.000000 10.000000 
L_mid_hand03 0.000000 0.000000 0.000000 0.000000 0.000000 0.000000 10.000000 
null_rope02_connect 0.000000 0.000000 0.000000 0.000000 0.000000 0.000000 10.000000 
Rope2_Seg01 0.000000 0.000000 0.000000 0.000000 0.000000 0.000000 10.000000 
Rope2_Seg02 0.000000 0.000000 0.000000 0.000000 0.000000 0.000000 10.000000 
Rope2_Seg03 0.000000 0.000000 0.000000 0.000000 0.000000 0.000000 10.000000 
Rope2_Seg04 0.000000 0.000000 0.000000 0.000000 0.000000 0.000000 10.000000 
Rope2_Seg05 0.000000 0.000000 0.000000 0.000000 0.000000 0.000000 10.000000 
Rope2_Seg06 0.000000 0.000000 0.000000 0.000000 0.000000 0.000000 10.000000 
Rope2_Seg07 0.000000 0.000000 0.000000 0.000000 0.000000 0.000000 10.000000 
Rope2_Seg09 0.000000 0.000000 0.000000 0.000000 0.000000 0.000000 10.000000 
R_mid_hand01 0.000000 0.000000 0.000000 0.000000 0.000000 0.000000 10.000000 
R_mid_hand02 0.000000 0.000000 0.000000 0.000000 0.000000 0.000000 10.000000 
R_mid_hand03 0.000000 0.000000 0.000000 0.000000 0.000000 0.000000 10.000000 
spine02 0.000000 0.000000 0.000000 0.000000 0.000000 0.000000 10.000000 
spine03 0.000000 0.000000 0.000000 0.000000 0.000000 0.000000 10.000000 
pelvis 0.000000 0.000000 0.000000 0.000000 0.000000 0.000000 10.000000 
null_rope03_connect 0.000000 0.000000 0.000000 0.000000 0.000000 0.000000 10.000000 
null_rope04_connect 0.000000 0.000000 0.000000 0.000000 0.000000 0.000000 10.000000 
Rope3_Seg01 0.000000 0.000000 0.000000 0.000000 0.000000 0.000000 10.000000 
Rope3_Seg02 0.000000 0.000000 0.000000 0.000000 0.000000 0.000000 10.000000 
Rope3_Seg03 0.000000 0.000000 0.000000 0.000000 0.000000 0.000000 10.000000 
Rope3_Seg04 0.000000 0.000000 0.000000 0.000000 0.000000 0.000000 10.000000 
Rope3_Seg05 0.000000 0.000000 0.000000 0.000000 0.000000 0.000000 10.000000 
Rope3_Seg06 0.000000 0.000000 0.000000 0.000000 0.000000 0.000000 10.000000 
Rope3_Seg07 0.000000 0.000000 0.000000 0.000000 0.000000 0.000000 10.000000 
Rope3_Seg08 0.000000 0.000000 0.000000 0.000000 0.000000 0.000000 10.000000 
Rope3_Seg09 0.000000 0.000000 0.000000 0.000000 0.000000 0.000000 10.000000 
R_rear_hand01 0.000000 0.000000 0.000000 0.000000 0.000000 0.000000 10.000000 
R_rear_hand02 0.000000 0.000000 0.000000 0.000000 0.000000 0.000000 10.000000 
R_rear_hand03 0.000000 0.000000 0.000000 0.000000 0.000000 0.000000 10.000000 
Rope4_Seg01 0.000000 0.000000 0.000000 0.000000 0.000000 0.000000 10.000000 
Rope4_Seg02 0.000000 0.000000 0.000000 0.000000 0.000000 0.000000 10.000000 
Rope4_Seg03 0.000000 0.000000 0.000000 0.000000 0.000000 0.000000 10.000000 
Rope4_Seg04 0.000000 0.000000 0.000000 0.000000 0.000000 0.000000 10.000000 
Rope4_Seg05 0.000000 0.000000 0.000000 0.000000 0.000000 0.000000 10.000000 
Rope4_Seg06 0.000000 0.000000 0.000000 0.000000 0.000000 0.000000 10.000000 
Rope4_Seg07 0.000000 0.000000 0.000000 0.000000 0.000000 0.000000 10.000000 
Rope4_Seg08 0.000000 0.000000 0.000000 0.000000 0.000000 0.000000 10.000000 
Rope4_Seg09 0.000000 0.000000 0.000000 0.000000 0.000000 0.000000 10.000000 
L_rear_hand01 0.000000 0.000000 0.000000 0.000000 0.000000 0.000000 10.000000 
L_rear_hand02 0.000000 0.000000 0.000000 0.000000 0.000000 0.000000 10.000000 
L_rear_hand03 0.000000 0.000000 0.000000 0.000000 0.000000 0.000000 10.000000 
#Beginning of Data. Separated by tabs
#Fr	Tx	Ty	Tz	Rx	Ry	Rz	SF
[MASTER]
3 0.000000 0.000000 0.000000 0.001660 0.001660 0.001660 0.000000
4 0.000000 0.000000 0.000000 0.001660 0.001660 0.001660 0.000000
[root]
3 -16.604862 -62.806980 1467.664795 -91.629158 -27.768665 -90.147812 1469.101929
4 -16.656147 -62.799416 1453.021729 -91.628891 -27.814949 -90.147636 1454.473633
[chest]
3 -84.512650 -34.090519 0.000000 -5.565674 1.888755 -178.498810 91.129311
4 -84.512650 -34.090519 0.000000 -5.817071 2.235750 -178.659042 91.129311
[L_mid_tent01]
3 27.337570 22.155722 -250.162094 5.263846 38.643620 83.755791 252.624817
4 27.332153 22.158813 -250.127228 5.843220 39.463554 85.092247 252.589966
[R_mid_tent01]
3 23.228794 24.509907 226.238495 157.305161 -49.368950 91.816505 228.744751
4 23.228794 24.509907 226.238495 156.110184 -50.015324 93.730972 228.744751
[spine01]
3 -0.361383 -0.195265 0.000000 0.812551 0.451903 15.229486 0.410763
4 -0.361383 -0.195265 0.000000 0.798323 0.454621 15.102706 0.410763
[Bip01_Neck]
3 165.484543 71.581718 0.000119 175.896118 1.177290 24.871183 180.302734
4 165.484543 71.581718 0.000119 175.896118 1.177290 24.871183 180.302734
[L_humerus]
3 -13.983130 -135.272980 -120.471481 175.078857 86.461937 -96.673782 181.680161
4 -13.983130 -135.272980 -120.471481 138.897385 88.528069 -132.268784 181.680161
[R_humerus]
3 -13.983309 -135.273102 125.287651 -160.478241 -73.545250 -101.835564 184.909012
4 -13.983309 -135.273102 125.287651 -156.140060 -75.557915 -105.580856 184.909012
[weapon_bone]
3 235.964890 -300.705902 0.000000 0.000000 -89.951546 -128.212341 382.234833
4 235.964890 -300.705902 0.000000 0.000000 -89.951546 -128.212341 382.234833
[Bip01_Head]
3 261.034485 109.131317 -6.712774 1.741596 5.840402 -63.530712 283.008301
4 260.659271 109.406586 -10.255394 1.245142 5.834126 -63.907730 282.874939
[eye_left_bone]
3 -24.626970 125.451866 -64.772606 0.000000 -90.000000 -99.840431 143.318359
4 -24.626970 125.451866 -64.772606 0.000000 -90.000000 -99.840431 143.318359
[eye_right_bone]
3 -24.626970 125.451866 64.327362 0.000000 -89.960434 80.159386 143.117676
4 -24.626970 125.451866 64.327362 0.000000 -89.960434 80.159386 143.117676
[L_forearm]
3 322.776093 0.000000 -0.000119 0.000419 0.002310 -69.444962 322.776093
4 322.776093 0.000000 -0.000119 0.000393 0.002314 -70.737625 322.776093
[L_front_hand]
3 241.149185 -0.042021 -3.300071 -178.784454 -1.914084 -23.799305 241.171753
4 241.149185 -0.042021 -3.300071 -178.916931 -1.990319 -20.023951 241.171753
[L_weapon_bone]
3 156.183838 0.000000 0.000000 0.001731 0.001585 5.028112 156.183838
4 156.183838 0.000000 0.000000 0.001802 0.001504 10.327388 156.183838
[L_front_hand01_01]
3 86.095154 20.947098 -0.655860 -0.345630 -0.486632 72.985954 88.609184
4 86.095154 20.947098 -0.655860 -0.358019 -0.483663 74.277168 88.609184
[L_front_hand02_01]
3 86.935165 -11.437475 24.513514 150.809296 -58.778587 -57.192558 91.046425
4 86.935165 -11.437475 24.513514 152.710815 -59.393673 -59.407352 91.046425
[L_front_hand03_01]
3 86.637497 -14.123976 -20.424902 -150.571686 56.997833 -58.742687 90.126129
4 86.637497 -14.123976 -20.424902 -152.345215 57.619305 -60.852303 90.126129
[L_front_hand01_02]
3 71.020905 -0.000179 0.000030 0.000334 -0.002323 -106.379379 71.020905
4 71.020905 -0.000179 0.000030 0.001534 0.001777 -8.378850 71.020905
[L_front_hand02_02]
3 71.020927 -0.000119 0.000060 0.000334 -0.002323 -106.379379 71.020927
4 71.020927 -0.000119 0.000060 0.001534 0.001777 -8.378850 71.020927
[L_front_hand03_02]
3 71.020905 -0.000060 0.000060 0.000334 -0.002323 -106.379379 71.020905
4 71.020905 -0.000060 0.000060 0.001534 0.001777 -8.378850 71.020905
[R_forearm]
3 322.776428 -0.000060 0.000030 0.200373 -0.073803 -70.944237 322.776428
4 322.776428 -0.000060 0.000030 0.200482 -0.073506 -71.114372 322.776428
[R_front_hand]
3 238.847015 -0.006795 2.210259 -1.339552 1.085526 -39.732826 238.857239
4 238.847015 -0.006795 2.210259 -1.222060 1.216789 -33.884605 238.857239
[R_weapon_bone]
3 155.664093 0.002503 -0.000030 0.003178 0.001857 -114.186386 155.664078
4 155.664093 0.002503 -0.000030 0.003117 0.001957 -117.860130 155.664078
[R_front_hand01_01]
3 87.624611 14.231146 22.918642 -151.019943 -58.847031 57.544685 91.683487
4 87.624611 14.231146 22.918642 -154.633499 -59.950619 61.746044 91.683487
[R_front_hand02_01]
3 89.356956 14.367283 -19.491137 151.211227 57.208401 59.740421 92.579636
4 89.356956 14.367283 -19.491137 154.602661 58.302849 63.744389 92.579636
[R_front_hand03_01]
3 87.286232 -22.307278 -0.143439 0.142368 -0.428417 -73.368439 90.091743
4 87.286232 -22.307278 -0.143439 0.162155 -0.423168 -75.767921 90.091743
[R_front_hand01_02]
3 71.020905 0.000060 0.000119 0.002323 -0.000334 106.381386 71.020905
4 71.020905 0.000060 0.000119 0.001777 0.001534 8.377220 71.020905
[R_front_hand02_02]
3 71.020844 -0.000030 -0.000119 0.002323 -0.000334 106.381386 71.020836
4 71.020844 -0.000030 -0.000119 0.001777 0.001534 8.377220 71.020836
[R_front_hand03_02]
3 71.020905 0.000000 0.000030 0.002323 -0.000334 106.381386 71.020905
4 71.020905 0.000000 0.000030 0.001777 0.001534 8.377220 71.020905
[null_rope01_connect]
3 328.732483 0.000000 -0.000238 -137.954285 -49.381538 173.911743 328.732483
4 328.732483 0.000000 -0.000238 -138.464417 -48.493778 173.379440 328.732483
[Rope1_Seg01]
3 0.000000 0.000000 0.000000 110.963783 41.750690 135.917831 0.000000
4 0.000000 0.000000 0.000000 111.444580 39.364742 137.083145 0.000000
[Rope1_Seg02]
3 139.999863 -0.000179 0.000000 -0.031067 -9.983520 2.705322 139.999863
4 139.999863 -0.000179 0.000000 0.062635 -10.440507 1.778912 139.999863
[Rope1_Seg03]
3 139.999924 0.000060 -0.000060 -2.233007 -17.935659 1.816426 139.999924
4 139.999924 0.000060 -0.000060 -2.449588 -20.964346 -0.616593 139.999924
[Rope1_Seg04]
3 139.999924 -0.000060 -0.000119 -9.596256 -25.433599 7.596826 139.999924
4 139.999924 -0.000060 -0.000119 -11.463987 -28.174623 7.899526 139.999924
[Rope1_Seg05]
3 139.999832 0.000119 -0.000060 7.630198 -6.464145 18.129194 139.999832
4 139.999832 0.000119 -0.000060 11.549151 -4.659688 19.708380 139.999832
[Rope1_Seg06]
3 139.999954 0.000119 -0.000060 4.057853 -2.154274 6.150123 139.999954
4 139.999954 0.000119 -0.000060 4.598297 -1.570451 5.821949 139.999954
[Rope1_Seg07]
3 139.999985 0.000060 0.000000 2.407431 -1.199336 3.222154 139.999985
4 139.999985 0.000060 0.000000 2.964971 -0.752051 3.114319 139.999985
[Rope1_Seg09]
3 121.602913 0.000119 -0.000089 -89.793175 -1.359789 0.847147 121.602913
4 121.602913 0.000119 -0.000089 -89.793175 -1.359789 0.847147 121.602913
[L_mid_hand01]
3 103.859421 1.038730 8.195221 111.431305 -47.263851 -16.612017 104.187431
4 103.859421 1.038730 8.195221 111.431305 -47.263851 -16.612017 104.187431
[L_mid_hand02]
3 105.572853 -4.139662 -10.864139 -150.709808 35.166882 -45.161087 106.211075
4 105.572853 -4.139662 -10.864139 -150.709808 35.166882 -45.161087 106.211075
[L_mid_hand03]
3 104.641464 17.579376 -3.913581 -12.649597 13.975001 50.985863 106.179977
4 104.641464 17.579376 -3.913581 -12.649596 13.974999 50.985855 106.179977
[null_rope02_connect]
3 328.732849 0.000179 -0.000119 -124.692192 38.498188 19.151665 328.732849
4 328.732849 0.000179 -0.000119 -125.417427 37.561871 19.562958 328.732849
[Rope2_Seg01]
3 -0.000030 0.000079 0.000108 -55.826981 49.770412 44.027107 0.000137
4 -0.000026 0.000080 0.000104 -58.939678 50.648338 40.188087 0.000134
[Rope2_Seg02]
3 139.999741 -0.000060 -0.000119 0.048847 -8.972705 2.686883 139.999756
4 139.999741 -0.000060 -0.000119 0.060751 -11.144992 3.265901 139.999756
[Rope2_Seg03]
3 140.000107 0.000030 0.000000 -0.226273 -8.380812 3.380894 140.000107
4 140.000107 0.000030 0.000000 -0.318766 -9.981422 3.952246 140.000107
[Rope2_Seg04]
3 139.999802 0.000000 -0.000060 -2.214225 -22.499144 5.805338 139.999802
4 139.999802 0.000000 -0.000060 -2.885266 -24.891396 5.929632 139.999802
[Rope2_Seg05]
3 139.999985 -0.000060 0.000119 -4.015141 -17.519880 2.578484 139.999985
4 139.999985 -0.000060 0.000119 -3.667260 -14.886825 2.037956 139.999985
[Rope2_Seg06]
3 139.999893 -0.000030 -0.000119 -1.964969 -5.807664 0.596622 139.999893
4 139.999893 -0.000030 -0.000119 -1.869930 -5.348596 0.529717 139.999893
[Rope2_Seg07]
3 139.999893 0.000060 -0.000060 -1.365425 -3.235709 0.228256 139.999893
4 139.999893 0.000060 -0.000060 -1.319738 -3.057986 0.200165 139.999893
[Rope2_Seg09]
3 121.338966 0.000089 -0.000060 33.793236 -1.359788 -0.847141 121.338966
4 121.338966 0.000089 -0.000060 33.793236 -1.359788 -0.847141 121.338966
[R_mid_hand01]
3 104.680779 11.144459 -10.335981 -34.269650 35.095989 42.885235 105.778534
4 104.680779 11.144459 -10.335981 -34.269650 35.095989 42.885235 105.778534
[R_mid_hand02]
3 104.070427 2.443552 8.231699 68.449066 -47.537163 16.779839 104.424065
4 104.070427 2.443552 8.231699 68.449066 -47.537163 16.779839 104.424065
[R_mid_hand03]
3 106.028137 -11.221827 -5.996406 -171.106766 13.128626 -52.726494 106.788818
4 106.028137 -11.221827 -5.996406 -171.106766 13.128626 -52.726494 106.788818
[spine02]
3 129.756927 0.001550 0.000119 -0.246917 -4.131398 -4.365332 129.756927
4 129.756927 0.001550 0.000119 -0.246364 -4.157906 -4.398349 129.756927
[spine03]
3 78.623909 0.085487 -4.799558 0.470489 4.161067 -3.995697 78.770309
4 78.628990 0.084591 -4.749941 0.531581 4.080925 -3.468897 78.772369
[pelvis]
3 169.435242 0.051022 0.000000 -0.008220 -0.099055 -1.920647 169.435257
4 169.435242 0.051022 0.000000 -0.007340 -0.052874 -1.932192 169.435257
[null_rope03_connect]
3 -1.257226 -2.466202 137.391083 -96.092400 -89.079315 -151.078568 137.418976
4 -1.257226 -2.466202 137.391083 -97.253685 -89.134529 -150.228226 137.418976
[null_rope04_connect]
3 -1.259640 -2.480268 -137.844437 -96.092400 -89.079315 -151.078568 137.872513
4 -1.259640 -2.480268 -137.844437 -97.253685 -89.134529 -150.228226 137.872513
[Rope3_Seg01]
3 0.000000 0.000000 0.000000 -140.769852 -35.571545 -64.495773 0.000000
4 0.000000 0.000000 0.000000 -138.736755 -34.504230 -67.598289 0.000000
[Rope3_Seg02]
3 139.999924 -0.000119 0.000060 -12.366019 4.740424 -26.269882 139.999924
4 139.999924 -0.000119 0.000060 -8.122523 3.933818 -21.351765 139.999924
[Rope3_Seg03]
3 139.999924 -0.000119 0.000119 -73.579086 24.010492 -62.127018 139.999924
4 139.999924 -0.000119 0.000119 -69.674240 20.039827 -64.238823 139.999924
[Rope3_Seg04]
3 139.999924 0.000119 0.000000 -22.433933 33.618847 -11.330576 139.999924
4 139.999924 0.000119 0.000000 -26.120317 34.340004 -13.213171 139.999924
[Rope3_Seg05]
3 139.999924 -0.000238 0.000060 -6.948716 24.708403 -3.550856 139.999924
4 139.999924 -0.000238 0.000060 -8.607873 26.366514 -4.310244 139.999924
[Rope3_Seg06]
3 139.999893 -0.000119 -0.000060 -0.432868 8.338764 0.297392 139.999893
4 139.999893 -0.000119 -0.000060 -0.813601 10.180202 0.212221 139.999893
[Rope3_Seg07]
3 139.999771 0.000060 -0.000119 0.298013 4.418651 0.240828 139.999771
4 139.999771 0.000060 -0.000119 0.237332 4.943340 0.299021 139.999771
[Rope3_Seg08]
3 139.999985 -0.000060 0.000000 0.489041 2.454418 0.120967 139.999985
4 139.999985 -0.000060 0.000000 0.475212 2.706597 0.151409 139.999985
[Rope3_Seg09]
3 90.185997 -0.000179 -0.000060 89.793228 -1.359877 -0.847183 90.185997
4 90.185997 -0.000179 -0.000060 89.793228 -1.359877 -0.847183 90.185997
[R_rear_hand01]
3 103.366196 -6.073594 -10.757982 -166.970291 21.129854 -46.704182 104.101845
4 103.366196 -6.073594 -10.757982 -166.970291 21.129850 -46.704182 104.101845
[R_rear_hand02]
3 100.509819 12.039542 -7.992327 -28.148869 27.804199 44.102722 101.543350
4 100.509819 12.039542 -7.992327 -28.148869 27.804199 44.102722 101.543350
[R_rear_hand03]
3 101.539970 5.215704 5.435467 81.628395 -47.127728 10.016968 101.819031
4 101.539970 5.215704 5.435467 81.628380 -47.127724 10.016966 101.819031
[Rope4_Seg01]
3 0.000010 0.000038 -0.000114 46.439655 -17.276741 -99.125847 0.000121
4 0.000010 0.000038 -0.000114 46.101158 -16.983795 -97.971725 0.000121
[Rope4_Seg02]
3 139.999985 0.000060 0.000119 9.050199 -47.472111 8.018406 139.999985
4 139.999985 0.000060 0.000119 5.006334 -37.767448 6.062966 139.999985
[Rope4_Seg03]
3 139.999924 0.000000 -0.000238 51.064312 -52.471745 30.935358 139.999924
4 139.999924 0.000000 -0.000238 47.462200 -61.149338 32.242401 139.999924
[Rope4_Seg04]
3 139.999985 0.000000 0.000119 18.103983 -2.547962 20.856571 139.999985
4 139.999985 0.000000 0.000119 18.774668 -3.501997 19.948614 139.999985
[Rope4_Seg05]
3 139.999802 -0.000060 -0.000119 14.554785 4.666706 31.442554 139.999802
4 139.999802 -0.000060 -0.000119 15.409166 2.981114 29.626797 139.999802
[Rope4_Seg06]
3 139.999924 0.000000 0.000060 3.229132 6.601225 16.282965 139.999924
4 139.999924 0.000000 0.000060 4.945727 7.384768 20.158106 139.999924
[Rope4_Seg07]
3 139.999802 0.000000 0.000000 0.426627 3.211914 6.840494 139.999802
4 139.999802 0.000000 0.000000 0.611716 3.584445 7.755730 139.999802
[Rope4_Seg08]
3 139.999924 0.000000 0.000119 -1.542751 1.717946 3.605063 139.999924
4 139.999924 0.000000 0.000119 -1.511308 1.885754 4.004298 139.999924
[Rope4_Seg09]
3 90.185791 0.000060 0.000060 -135.617828 2.228885 0.850567 90.185791
4 90.185791 0.000060 0.000060 -135.617828 2.228885 0.850567 90.185791
[L_rear_hand01]
3 101.696655 -8.392275 -7.654577 -27.705481 -28.251705 134.947800 102.329041
4 101.696655 -8.392275 -7.654577 -27.705481 -28.251705 134.947800 102.329041
[L_rear_hand02]
3 102.726799 -1.568258 5.773216 81.477219 48.065086 169.775513 102.900848
4 102.726799 -1.568258 5.773216 81.477219 48.065086 169.775513 102.900848
[L_rear_hand03]
3 104.552910 9.721220 -10.420293 -167.330078 -21.338425 -132.303940 105.519653
4 104.552910 9.721220 -10.420293 -167.330078 -21.338425 -132.303940 105.519653
